<svg width="22" height="24" viewBox="0 0 22 24" fill="none" xmlns="http://www.w3.org/2000/svg">
<path d="M19.2609 5.23062L12.7226 1.45516C11.6549 0.838759 10.3341 0.838759 9.25535 1.45516L2.72813 5.23062C1.66043 5.84702 1 6.99177 1 8.23557V15.7645C1 16.9973 1.66043 18.142 2.72813 18.7694L9.26636 22.5449C10.3341 23.1613 11.6549 23.1613 12.7336 22.5449L19.2719 18.7694C20.3396 18.153 21 17.0083 21 15.7645V8.23557C20.989 6.99177 20.3286 5.85803 19.2609 5.23062ZM10.1689 7.32198C10.1689 6.87069 10.5432 6.49644 10.9945 6.49644C11.4458 6.49644 11.82 6.87069 11.82 7.32198V13.1007C11.82 13.552 11.4458 13.9263 10.9945 13.9263C10.5432 13.9263 10.1689 13.552 10.1689 13.1007V7.32198ZM12.0071 17.0963C11.9521 17.2284 11.8751 17.3495 11.776 17.4596C11.5669 17.6687 11.2917 17.7788 10.9945 17.7788C10.8514 17.7788 10.7083 17.7458 10.5762 17.6907C10.4331 17.6357 10.323 17.5586 10.213 17.4596C10.1139 17.3495 10.0369 17.2284 9.97082 17.0963C9.91578 16.9643 9.89377 16.8212 9.89377 16.6781C9.89377 16.3919 10.0038 16.1057 10.213 15.8966C10.323 15.7975 10.4331 15.7204 10.5762 15.6654C10.9835 15.4893 11.4678 15.5884 11.776 15.8966C11.8751 16.0066 11.9521 16.1167 12.0071 16.2598C12.0622 16.3919 12.0952 16.535 12.0952 16.6781C12.0952 16.8212 12.0622 16.9643 12.0071 17.0963Z" fill="#292D32"/>
</svg>
