<svg width="22" height="24" viewBox="0 0 22 24" fill="none" xmlns="http://www.w3.org/2000/svg">
<path d="M6.89747 5.58975C6.47695 5.58975 6.12823 5.24103 6.12823 4.82052V1.7436C6.12823 1.32308 6.47695 0.974365 6.89747 0.974365C7.31798 0.974365 7.6667 1.32308 7.6667 1.7436V4.82052C7.6667 5.24103 7.31798 5.58975 6.89747 5.58975Z" fill="#292D32"/>
<path d="M15.1025 5.58975C14.682 5.58975 14.3333 5.24103 14.3333 4.82052V1.7436C14.3333 1.32308 14.682 0.974365 15.1025 0.974365C15.5231 0.974365 15.8718 1.32308 15.8718 1.7436V4.82052C15.8718 5.24103 15.5231 5.58975 15.1025 5.58975Z" fill="#292D32"/>
<path d="M7.41028 14.5643C7.27695 14.5643 7.14362 14.5335 7.02054 14.4822C6.88721 14.4309 6.78464 14.3591 6.68208 14.2668C6.49746 14.072 6.38464 13.8155 6.38464 13.5386C6.38464 13.4053 6.41541 13.272 6.46669 13.1489C6.51798 13.0258 6.58977 12.913 6.68208 12.8104C6.78464 12.7181 6.88721 12.6463 7.02054 12.595C7.38977 12.4412 7.85131 12.5232 8.13849 12.8104C8.3231 13.0053 8.43593 13.272 8.43593 13.5386C8.43593 13.6002 8.42567 13.672 8.41541 13.7437C8.40516 13.8053 8.38464 13.8668 8.35387 13.9284C8.33336 13.9899 8.30259 14.0514 8.26157 14.113C8.2308 14.1643 8.17952 14.2155 8.13849 14.2668C7.94362 14.4514 7.67695 14.5643 7.41028 14.5643Z" fill="#292D32"/>
<path d="M11 14.5641C10.8667 14.5641 10.7333 14.5333 10.6103 14.482C10.4769 14.4307 10.3744 14.3589 10.2718 14.2666C10.0872 14.0718 9.97437 13.8153 9.97437 13.5384C9.97437 13.4051 10.0051 13.2718 10.0564 13.1487C10.1077 13.0256 10.1795 12.9128 10.2718 12.8102C10.3744 12.7179 10.4769 12.6461 10.6103 12.5948C10.9795 12.4307 11.441 12.523 11.7282 12.8102C11.9128 13.0051 12.0256 13.2718 12.0256 13.5384C12.0256 13.6 12.0154 13.6718 12.0051 13.7435C11.9949 13.8051 11.9744 13.8666 11.9436 13.9282C11.9231 13.9897 11.8923 14.0512 11.8513 14.1128C11.8205 14.1641 11.7692 14.2153 11.7282 14.2666C11.5333 14.4512 11.2667 14.5641 11 14.5641Z" fill="#292D32"/>
<path d="M14.5898 14.5641C14.4565 14.5641 14.3231 14.5333 14.2 14.482C14.0667 14.4307 13.9641 14.3589 13.8616 14.2666C13.8206 14.2153 13.7795 14.1641 13.7385 14.1128C13.6975 14.0512 13.6667 13.9897 13.6462 13.9282C13.6154 13.8666 13.5949 13.8051 13.5847 13.7435C13.5744 13.6718 13.5641 13.6 13.5641 13.5384C13.5641 13.2718 13.677 13.0051 13.8616 12.8102C13.9641 12.7179 14.0667 12.6461 14.2 12.5948C14.5795 12.4307 15.0308 12.523 15.318 12.8102C15.5026 13.0051 15.6154 13.2718 15.6154 13.5384C15.6154 13.6 15.6052 13.6718 15.5949 13.7435C15.5847 13.8051 15.5641 13.8666 15.5334 13.9282C15.5129 13.9897 15.4821 14.0512 15.4411 14.1128C15.4103 14.1641 15.359 14.2153 15.318 14.2666C15.1231 14.4512 14.8565 14.5641 14.5898 14.5641Z" fill="#292D32"/>
<path d="M7.41028 18.1538C7.27695 18.1538 7.14362 18.1231 7.02054 18.0718C6.89746 18.0205 6.78464 17.9486 6.68208 17.8563C6.49746 17.6615 6.38464 17.3948 6.38464 17.1281C6.38464 16.9948 6.41541 16.8615 6.46669 16.7384C6.51798 16.6051 6.58977 16.4923 6.68208 16.4C7.06157 16.0205 7.759 16.0205 8.13849 16.4C8.3231 16.5949 8.43593 16.8615 8.43593 17.1281C8.43593 17.3948 8.3231 17.6615 8.13849 17.8563C7.94362 18.041 7.67695 18.1538 7.41028 18.1538Z" fill="#292D32"/>
<path d="M11 18.1538C10.7333 18.1538 10.4667 18.041 10.2718 17.8563C10.0872 17.6615 9.97437 17.3948 9.97437 17.1281C9.97437 16.9948 10.0051 16.8615 10.0564 16.7384C10.1077 16.6051 10.1795 16.4923 10.2718 16.4C10.6513 16.0205 11.3487 16.0205 11.7282 16.4C11.8205 16.4923 11.8923 16.6051 11.9436 16.7384C11.9949 16.8615 12.0256 16.9948 12.0256 17.1281C12.0256 17.3948 11.9128 17.6615 11.7282 17.8563C11.5333 18.041 11.2667 18.1538 11 18.1538Z" fill="#292D32"/>
<path d="M14.5898 18.1537C14.3231 18.1537 14.0565 18.0409 13.8616 17.8563C13.7693 17.764 13.6975 17.6512 13.6462 17.5179C13.5949 17.3948 13.5641 17.2614 13.5641 17.1281C13.5641 16.9948 13.5949 16.8614 13.6462 16.7384C13.6975 16.605 13.7693 16.4922 13.8616 16.3999C14.0975 16.164 14.4565 16.0512 14.7847 16.123C14.8565 16.1332 14.918 16.1537 14.9795 16.1845C15.0411 16.205 15.1026 16.2358 15.1641 16.2768C15.2154 16.3076 15.2667 16.3589 15.318 16.3999C15.5026 16.5948 15.6154 16.8614 15.6154 17.1281C15.6154 17.3948 15.5026 17.6614 15.318 17.8563C15.1231 18.0409 14.8565 18.1537 14.5898 18.1537Z" fill="#292D32"/>
<path d="M19.7179 9.78449H2.28205C1.86154 9.78449 1.51282 9.43578 1.51282 9.01526C1.51282 8.59475 1.86154 8.24603 2.28205 8.24603H19.7179C20.1385 8.24603 20.4872 8.59475 20.4872 9.01526C20.4872 9.43578 20.1385 9.78449 19.7179 9.78449Z" fill="#292D32"/>
<path d="M15.1026 23.0257H6.89744C3.15385 23.0257 1 20.8719 1 17.1283V8.41031C1 4.66672 3.15385 2.51288 6.89744 2.51288H15.1026C18.8462 2.51288 21 4.66672 21 8.41031V17.1283C21 20.8719 18.8462 23.0257 15.1026 23.0257ZM6.89744 4.05134C3.9641 4.05134 2.53846 5.47698 2.53846 8.41031V17.1283C2.53846 20.0616 3.9641 21.4872 6.89744 21.4872H15.1026C18.0359 21.4872 19.4615 20.0616 19.4615 17.1283V8.41031C19.4615 5.47698 18.0359 4.05134 15.1026 4.05134H6.89744Z" fill="#292D32"/>
</svg>
