<svg width="22" height="24" viewBox="0 0 22 24" fill="none" xmlns="http://www.w3.org/2000/svg">
<path d="M6.89747 5.58975C6.47695 5.58975 6.12823 5.24103 6.12823 4.82052V1.7436C6.12823 1.32308 6.47695 0.974365 6.89747 0.974365C7.31798 0.974365 7.6667 1.32308 7.6667 1.7436V4.82052C7.6667 5.24103 7.31798 5.58975 6.89747 5.58975Z" fill="#292D32"/>
<path d="M15.1025 5.58975C14.682 5.58975 14.3333 5.24103 14.3333 4.82052V1.7436C14.3333 1.32308 14.682 0.974365 15.1025 0.974365C15.5231 0.974365 15.8718 1.32308 15.8718 1.7436V4.82052C15.8718 5.24103 15.5231 5.58975 15.1025 5.58975Z" fill="#292D32"/>
<path d="M14.0769 23.0256H7.92308C2.15897 23.0256 1 20.3077 1 15.9179V9.58974C1 4.7282 2.64103 2.74871 6.85641 2.51282H15.1026H15.1436C19.359 2.74871 21 4.7282 21 9.58974V15.9179C21 20.3077 19.841 23.0256 14.0769 23.0256ZM6.89744 4.05128C4.02564 4.21538 2.53846 5.11794 2.53846 9.58974V15.9179C2.53846 19.8461 3.28718 21.4872 7.92308 21.4872H14.0769C18.7128 21.4872 19.4615 19.8461 19.4615 15.9179V9.58974C19.4615 5.1282 17.9846 4.21538 15.0821 4.05128H6.89744Z" fill="#292D32"/>
<path d="M19.9744 18.5129H2.02564C1.60513 18.5129 1.25641 18.1642 1.25641 17.7437C1.25641 17.3232 1.60513 16.9745 2.02564 16.9745H19.9744C20.3949 16.9745 20.7436 17.3232 20.7436 17.7437C20.7436 18.1642 20.3949 18.5129 19.9744 18.5129Z" fill="#292D32"/>
<path d="M11 8.15387C9.73848 8.15387 8.67181 8.84105 8.67181 10.1744C8.67181 10.8103 8.96925 11.2923 9.42053 11.6C8.79489 11.9693 8.43591 12.5641 8.43591 13.2616C8.43591 14.5334 9.41027 15.3231 11 15.3231C12.5795 15.3231 13.5641 14.5334 13.5641 13.2616C13.5641 12.5641 13.2051 11.959 12.5692 11.6C13.0308 11.2821 13.318 10.8103 13.318 10.1744C13.318 8.84105 12.2616 8.15387 11 8.15387ZM11 11.0667C10.4667 11.0667 10.0769 10.7487 10.0769 10.2462C10.0769 9.73336 10.4667 9.43592 11 9.43592C11.5333 9.43592 11.9231 9.73336 11.9231 10.2462C11.9231 10.7487 11.5333 11.0667 11 11.0667ZM11 14.0513C10.3231 14.0513 9.83078 13.7128 9.83078 13.0975C9.83078 12.4821 10.3231 12.1539 11 12.1539C11.6769 12.1539 12.1692 12.4923 12.1692 13.0975C12.1692 13.7128 11.6769 14.0513 11 14.0513Z" fill="#292D32"/>
</svg>
